# xmcd
#
# Track frame offsets:
#	150
#	12217
#	23180
#	36490
#	49135
#	57295
#	68452
#	78990
#	90090
#	98322
#	106792
#	117482
#	135330
#	142887
#	150092
#	157452
#	173175
#	179402
#	197430
#	204992
#
# Disc length: 2937 seconds
#
# Revision: 0
# Processed by: cddbd v1.5.1PL0 Copyright (c) Steve Scherf et al.
# Submitted via: audiograbber 1.83.01
#
DISCID=f00b7714
DTITLE=Various Artist - Country Guitar - Thunder
DYEAR=2000
DGENRE=Country
TTITLE0=Joe Maphis - Ballad Of Thunder Road/ Theme From Bonanza
TTITLE1=Joe Maphis - Nashville Jubilee
TTITLE2=David West - Green River
TTITLE3=Merle Travis and Joe Maphis - Lonesome Road Blues
TTITLE4=Merle Travis and Joe Maphis - Black Mountain Rag
TTITLE5=Merle Travis and Joe Maphis - Freight Train
TTITLE6=Marty Stuart - I Don't Love Nobody
TTITLE7=Merle Travis and Joe Maphis - Free Little Bird
TTITLE8=Joe Maphis - Liberty
TTITLE9=Joe Maphis - Little Rock Getaway
TTITLE10=Joe Maphis - Flying Fingers
TTITLE11=Merle Travis and Joe Maphis - Mose Rager Blues
TTITLE12=Merle Travis and Joe Maphis - Wildwood Flower
TTITLE13=Merle Travis and Joe Maphis - Alabama Jubilee
TTITLE14=Merle Travis and Joe Maphis  - John Henry
TTITLE15=David West and Tom Corbett - Already Gone
TTITLE16=Merle Travis and Joe Maphis - Li'l Liza Jane
TTITLE17=Joe Maphis - Irish Washerwoman
TTITLE18=Merle Travis and Joe Maphis - Eight More Miles To Louisville
TTITLE19=Dennis Capliner and David West - Crossroads (Cross Road Blues)
EXTD=
EXTT0=
EXTT1=
EXTT2=
EXTT3=
EXTT4=
EXTT5=
EXTT6=
EXTT7=
EXTT8=
EXTT9=
EXTT10=
EXTT11=
EXTT12=
EXTT13=
EXTT14=
EXTT15=
EXTT16=
EXTT17=
EXTT18=
EXTT19=
PLAYORDER=
